<?xml version="1.0" encoding="utf-8" ?>
<svg baseProfile="full" height="2045" version="1.1" width="2048" xmlns="http://www.w3.org/2000/svg" xmlns:ev="http://www.w3.org/2001/xml-events" xmlns:xlink="http://www.w3.org/1999/xlink"><defs /><polygon fill="gray" points="198.0,1244.5 197.0,1244.5 196.0,1244.5 195.0,1244.5 194.0,1244.5 193.0,1244.5 192.0,1244.5 191.0,1244.5 190.0,1244.5 189.0,1244.5 188.0,1244.5 187.0,1244.5 186.0,1244.5 185.0,1244.5 184.0,1244.5 183.0,1244.5 182.0,1244.5 181.0,1244.5 180.0,1244.5 179.0,1244.5 178.0,1244.5 177.0,1244.5 176.0,1244.5 175.0,1244.5 174.0,1244.5 173.5,1244.0 174.0,1243.5 175.0,1243.5 176.0,1243.5 177.0,1243.5 178.0,1243.5 179.0,1243.5 180.0,1243.5 181.0,1243.5 182.0,1243.5 183.0,1243.5 184.0,1243.5 185.0,1243.5 186.0,1243.5 187.0,1243.5 188.0,1243.5 189.0,1243.5 190.0,1243.5 191.0,1243.5 192.0,1243.5 193.0,1243.5 194.0,1243.5 195.0,1243.5 196.0,1243.5 197.0,1243.5 198.0,1243.5 198.5,1244.0 198.0,1244.5" /><polygon fill="gray" points="1841.0,2027.5 1840.0,2027.5 1839.0,2027.5 1838.0,2027.5 1837.0,2027.5 1836.5,2027.0 1836.0,2026.5 1835.5,2026.0 1835.0,2025.5 1834.5,2025.0 1834.5,2024.0 1834.5,2023.0 1834.5,2022.0 1834.5,2021.0 1834.5,2020.0 1835.0,2019.5 1835.5,2019.0 1836.0,2018.5 1836.5,2018.0 1837.0,2017.5 1838.0,2017.5 1839.0,2017.5 1840.0,2017.5 1841.0,2017.5 1841.5,2018.0 1841.5,2019.0 1841.0,2019.5 1840.0,2019.5 1839.0,2019.5 1838.0,2019.5 1837.5,2020.0 1837.0,2020.5 1836.5,2021.0 1836.5,2022.0 1836.5,2023.0 1836.5,2024.0 1837.0,2024.5 1837.5,2025.0 1838.0,2025.5 1839.0,2025.5 1840.0,2025.5 1841.0,2025.5 1841.5,2026.0 1841.5,2027.0 1841.0,2027.5" /><polygon fill="gray" points="1883.0,2027.5 1882.0,2027.5 1881.0,2027.5 1880.0,2027.5 1879.0,2027.5 1878.0,2027.5 1877.5,2027.0 1877.0,2026.5 1876.5,2026.0 1876.5,2025.0 1876.5,2024.0 1876.5,2023.0 1876.5,2022.0 1877.0,2021.5 1877.5,2021.0 1878.0,2020.5 1879.0,2020.5 1880.0,2020.5 1881.0,2020.5 1881.5,2020.0 1881.5,2019.0 1881.5,2018.0 1882.0,2017.5 1883.0,2017.5 1883.5,2018.0 1883.5,2019.0 1883.5,2020.0 1883.5,2021.0 1883.5,2022.0 1883.5,2023.0 1883.5,2024.0 1883.5,2025.0 1883.5,2026.0 1883.5,2027.0 1883.0,2027.5" /><polygon fill="gray" points="1902.0,2019.5 1901.0,2019.5 1900.5,2019.0 1900.5,2018.0 1901.0,2017.5 1902.0,2017.5 1902.5,2018.0 1902.5,2019.0 1902.0,2019.5" /><polygon fill="gray" points="1916.0,2027.5 1915.0,2027.5 1914.5,2027.0 1914.5,2026.0 1914.5,2025.0 1914.5,2024.0 1914.5,2023.0 1914.0,2022.5 1913.5,2022.0 1913.0,2021.5 1912.5,2022.0 1912.0,2022.5 1911.5,2023.0 1911.5,2024.0 1911.5,2025.0 1911.5,2026.0 1911.5,2027.0 1911.0,2027.5 1910.0,2027.5 1909.5,2027.0 1909.5,2026.0 1909.5,2025.0 1909.5,2024.0 1909.5,2023.0 1909.5,2022.0 1909.5,2021.0 1909.5,2020.0 1909.5,2019.0 1909.5,2018.0 1910.0,2017.5 1911.0,2017.5 1911.5,2018.0 1911.5,2019.0 1911.5,2020.0 1912.0,2020.5 1913.0,2020.5 1914.0,2020.5 1915.0,2020.5 1915.5,2021.0 1916.0,2021.5 1916.5,2022.0 1916.5,2023.0 1916.5,2024.0 1916.5,2025.0 1916.5,2026.0 1916.5,2027.0 1916.0,2027.5" /><polygon fill="gray" points="1964.0,2027.5 1963.0,2027.5 1962.5,2027.0 1962.5,2026.0 1962.5,2025.0 1962.5,2024.0 1962.5,2023.0 1962.0,2022.5 1961.5,2022.0 1961.0,2021.5 1960.5,2022.0 1960.0,2022.5 1959.5,2023.0 1959.5,2024.0 1959.5,2025.0 1959.5,2026.0 1959.5,2027.0 1959.0,2027.5 1958.0,2027.5 1957.5,2027.0 1957.5,2026.0 1957.5,2025.0 1957.5,2024.0 1957.5,2023.0 1957.5,2022.0 1957.5,2021.0 1957.5,2020.0 1957.5,2019.0 1957.5,2018.0 1958.0,2017.5 1959.0,2017.5 1959.5,2018.0 1959.5,2019.0 1959.5,2020.0 1960.0,2020.5 1961.0,2020.5 1962.0,2020.5 1963.0,2020.5 1963.5,2021.0 1963.5,2022.0 1964.0,2022.5 1964.5,2023.0 1964.5,2024.0 1964.5,2025.0 1964.5,2026.0 1964.5,2027.0 1964.0,2027.5" /><polygon fill="gray" points="1867.0,2027.5 1866.0,2027.5 1865.0,2027.5 1864.5,2027.0 1864.5,2026.0 1864.5,2025.0 1864.5,2024.0 1864.5,2023.0 1864.0,2022.5 1863.5,2022.0 1863.5,2021.0 1864.0,2020.5 1864.5,2020.0 1864.5,2019.0 1865.0,2018.5 1866.0,2018.5 1866.5,2019.0 1866.5,2020.0 1867.0,2020.5 1867.5,2021.0 1867.5,2022.0 1867.0,2022.5 1866.5,2023.0 1866.5,2024.0 1866.5,2025.0 1867.0,2025.5 1867.5,2026.0 1867.5,2027.0 1867.0,2027.5" /><polygon fill="gray" points="1908.0,2027.5 1907.0,2027.5 1906.0,2027.5 1905.5,2027.0 1905.0,2026.5 1904.5,2026.0 1904.5,2025.0 1904.5,2024.0 1904.5,2023.0 1904.5,2022.0 1904.0,2021.5 1903.5,2021.0 1904.0,2020.5 1904.5,2020.0 1905.0,2019.5 1905.5,2019.0 1906.0,2018.5 1906.5,2019.0 1906.5,2020.0 1907.0,2020.5 1908.0,2020.5 1908.5,2021.0 1908.0,2021.5 1907.5,2022.0 1907.0,2022.5 1906.5,2023.0 1906.5,2024.0 1906.5,2025.0 1907.0,2025.5 1908.0,2025.5 1908.5,2026.0 1908.5,2027.0 1908.0,2027.5" /><polygon fill="gray" points="1983.0,2027.5 1982.0,2027.5 1981.0,2027.5 1980.5,2027.0 1980.0,2026.5 1979.5,2026.0 1979.5,2025.0 1979.5,2024.0 1979.5,2023.0 1979.5,2022.0 1979.0,2021.5 1978.5,2021.0 1979.0,2020.5 1979.5,2020.0 1980.0,2019.5 1980.5,2019.0 1981.0,2018.5 1981.5,2019.0 1981.5,2020.0 1982.0,2020.5 1983.0,2020.5 1983.5,2021.0 1983.5,2022.0 1983.0,2022.5 1982.0,2022.5 1981.5,2023.0 1981.5,2024.0 1981.5,2025.0 1982.0,2025.5 1983.0,2025.5 1983.5,2026.0 1983.5,2027.0 1983.0,2027.5" /><polygon fill="gray" points="2008.0,2027.5 2007.0,2027.5 2006.0,2027.5 2005.5,2027.0 2005.5,2026.0 2005.0,2025.5 2004.5,2025.0 2004.5,2024.0 2004.5,2023.0 2004.5,2022.0 2004.0,2021.5 2003.5,2021.0 2004.0,2020.5 2004.5,2020.0 2005.0,2019.5 2005.5,2019.0 2006.0,2018.5 2007.0,2018.5 2007.5,2019.0 2007.5,2020.0 2008.0,2020.5 2008.5,2021.0 2008.0,2021.5 2007.5,2022.0 2007.5,2023.0 2007.5,2024.0 2007.5,2025.0 2008.0,2025.5 2008.5,2026.0 2008.5,2027.0 2008.0,2027.5" /><polygon fill="gray" points="1845.0,2027.5 1844.0,2027.5 1843.5,2027.0 1843.5,2026.0 1843.5,2025.0 1843.5,2024.0 1843.5,2023.0 1843.5,2022.0 1843.5,2021.0 1844.0,2020.5 1845.0,2020.5 1846.0,2020.5 1847.0,2020.5 1847.5,2021.0 1847.5,2022.0 1847.0,2022.5 1846.0,2022.5 1845.5,2023.0 1845.5,2024.0 1845.5,2025.0 1845.5,2026.0 1845.5,2027.0 1845.0,2027.5" /><polygon fill="gray" points="1854.0,2027.5 1853.0,2027.5 1852.0,2027.5 1851.0,2027.5 1850.0,2027.5 1849.5,2027.0 1849.0,2026.5 1848.5,2026.0 1848.5,2025.0 1848.5,2024.0 1848.5,2023.0 1848.5,2022.0 1849.0,2021.5 1849.5,2021.0 1850.0,2020.5 1851.0,2020.5 1852.0,2020.5 1853.0,2020.5 1853.5,2021.0 1854.0,2021.5 1854.5,2022.0 1854.5,2023.0 1854.5,2024.0 1854.0,2024.5 1853.0,2024.5 1852.0,2024.5 1851.0,2024.5 1850.5,2025.0 1851.0,2025.5 1851.5,2026.0 1852.0,2026.5 1852.5,2026.0 1853.0,2025.5 1853.5,2026.0 1854.0,2026.5 1854.5,2027.0 1854.0,2027.5" /><polygon fill="gray" points="1862.0,2027.5 1861.0,2027.5 1860.0,2027.5 1859.0,2027.5 1858.0,2027.5 1857.0,2027.5 1856.5,2027.0 1856.0,2026.5 1855.5,2026.0 1855.5,2025.0 1856.0,2024.5 1856.5,2024.0 1857.0,2023.5 1858.0,2023.5 1859.0,2023.5 1859.5,2023.0 1859.5,2022.0 1859.0,2021.5 1858.0,2021.5 1857.5,2022.0 1857.0,2022.5 1856.5,2022.0 1856.5,2021.0 1857.0,2020.5 1858.0,2020.5 1859.0,2020.5 1860.0,2020.5 1861.0,2020.5 1861.5,2021.0 1861.5,2022.0 1861.5,2023.0 1862.0,2023.5 1862.5,2024.0 1862.5,2025.0 1862.5,2026.0 1862.5,2027.0 1862.0,2027.5" /><polygon fill="gray" points="1874.0,2027.5 1873.0,2027.5 1872.0,2027.5 1871.0,2027.5 1870.0,2027.5 1869.5,2027.0 1869.5,2026.0 1869.0,2025.5 1868.5,2025.0 1868.5,2024.0 1868.5,2023.0 1869.0,2022.5 1869.5,2022.0 1869.5,2021.0 1870.0,2020.5 1871.0,2020.5 1872.0,2020.5 1873.0,2020.5 1874.0,2020.5 1874.5,2021.0 1875.0,2021.5 1875.5,2022.0 1875.5,2023.0 1875.5,2024.0 1875.0,2024.5 1874.0,2024.5 1873.0,2024.5 1872.0,2024.5 1871.5,2025.0 1872.0,2025.5 1872.5,2026.0 1873.0,2026.5 1873.5,2026.0 1874.0,2025.5 1874.5,2026.0 1874.5,2027.0 1874.0,2027.5" /><polygon fill="gray" points="1897.0,2027.5 1896.0,2027.5 1895.0,2027.5 1894.5,2027.0 1894.5,2026.0 1894.5,2025.0 1894.0,2024.5 1893.5,2025.0 1893.0,2025.5 1892.5,2026.0 1892.5,2027.0 1892.0,2027.5 1891.0,2027.5 1890.5,2027.0 1890.0,2026.5 1889.5,2026.0 1889.5,2025.0 1889.5,2024.0 1889.0,2023.5 1888.5,2023.0 1888.5,2022.0 1888.5,2021.0 1889.0,2020.5 1890.0,2020.5 1890.5,2021.0 1890.5,2022.0 1891.0,2022.5 1891.5,2023.0 1891.5,2024.0 1892.0,2024.5 1892.5,2024.0 1892.5,2023.0 1892.5,2022.0 1892.5,2021.0 1893.0,2020.5 1894.0,2020.5 1895.0,2020.5 1895.5,2021.0 1895.5,2022.0 1895.5,2023.0 1895.5,2024.0 1896.0,2024.5 1896.5,2024.0 1896.5,2023.0 1896.5,2022.0 1897.0,2021.5 1897.5,2021.0 1898.0,2020.5 1898.5,2021.0 1898.5,2022.0 1898.5,2023.0 1898.5,2024.0 1898.0,2024.5 1897.5,2025.0 1897.5,2026.0 1897.5,2027.0 1897.0,2027.5" /><polygon fill="gray" points="1902.0,2027.5 1901.0,2027.5 1900.5,2027.0 1900.5,2026.0 1900.5,2025.0 1900.5,2024.0 1900.5,2023.0 1900.5,2022.0 1900.5,2021.0 1901.0,2020.5 1902.0,2020.5 1902.5,2021.0 1902.5,2022.0 1902.5,2023.0 1902.5,2024.0 1902.5,2025.0 1902.5,2026.0 1902.5,2027.0 1902.0,2027.5" /><polygon fill="gray" points="1932.0,2027.5 1931.0,2027.5 1930.5,2027.0 1930.5,2026.0 1930.5,2025.0 1930.5,2024.0 1930.5,2023.0 1930.0,2022.5 1929.0,2022.5 1928.5,2023.0 1928.5,2024.0 1928.5,2025.0 1928.5,2026.0 1928.5,2027.0 1928.0,2027.5 1927.0,2027.5 1926.5,2027.0 1926.5,2026.0 1926.5,2025.0 1926.5,2024.0 1926.5,2023.0 1926.0,2022.5 1925.5,2022.0 1925.0,2021.5 1924.5,2022.0 1924.5,2023.0 1924.0,2023.5 1923.5,2024.0 1923.5,2025.0 1923.5,2026.0 1923.5,2027.0 1923.0,2027.5 1922.0,2027.5 1921.5,2027.0 1921.5,2026.0 1921.5,2025.0 1921.5,2024.0 1921.5,2023.0 1921.5,2022.0 1921.5,2021.0 1922.0,2020.5 1923.0,2020.5 1924.0,2020.5 1925.0,2020.5 1926.0,2020.5 1927.0,2020.5 1928.0,2020.5 1929.0,2020.5 1930.0,2020.5 1931.0,2020.5 1932.0,2020.5 1932.5,2021.0 1932.5,2022.0 1932.5,2023.0 1932.5,2024.0 1932.5,2025.0 1932.5,2026.0 1932.5,2027.0 1932.0,2027.5" /><polygon fill="gray" points="1940.0,2027.5 1939.0,2027.5 1938.0,2027.5 1937.0,2027.5 1936.0,2027.5 1935.0,2027.5 1934.5,2027.0 1934.5,2026.0 1934.5,2025.0 1934.5,2024.0 1935.0,2023.5 1936.0,2023.5 1937.0,2023.5 1937.5,2023.0 1937.5,2022.0 1937.0,2021.5 1936.0,2021.5 1935.0,2021.5 1934.5,2021.0 1935.0,2020.5 1936.0,2020.5 1937.0,2020.5 1938.0,2020.5 1939.0,2020.5 1939.5,2021.0 1940.0,2021.5 1940.5,2022.0 1940.5,2023.0 1940.5,2024.0 1940.5,2025.0 1940.5,2026.0 1940.5,2027.0 1940.0,2027.5" /><polygon fill="gray" points="1944.0,2030.5 1943.0,2030.5 1942.5,2030.0 1942.5,2029.0 1942.5,2028.0 1942.5,2027.0 1942.5,2026.0 1942.5,2025.0 1942.5,2024.0 1942.5,2023.0 1942.5,2022.0 1942.5,2021.0 1943.0,2020.5 1944.0,2020.5 1945.0,2020.5 1946.0,2020.5 1947.0,2020.5 1948.0,2020.5 1948.5,2021.0 1949.0,2021.5 1949.5,2022.0 1949.5,2023.0 1949.5,2024.0 1949.5,2025.0 1949.0,2025.5 1948.5,2026.0 1948.0,2026.5 1947.5,2027.0 1947.0,2027.5 1946.0,2027.5 1945.0,2027.5 1944.5,2028.0 1944.5,2029.0 1944.5,2030.0 1944.0,2030.5" /><polygon fill="gray" points="1956.0,2027.5 1955.0,2027.5 1954.0,2027.5 1953.0,2027.5 1952.0,2027.5 1951.5,2027.0 1951.0,2026.5 1950.5,2026.0 1950.5,2025.0 1950.5,2024.0 1950.5,2023.0 1950.5,2022.0 1951.0,2021.5 1951.5,2021.0 1952.0,2020.5 1953.0,2020.5 1954.0,2020.5 1955.0,2020.5 1956.0,2020.5 1956.5,2021.0 1956.0,2021.5 1955.0,2021.5 1954.0,2021.5 1953.5,2022.0 1953.0,2022.5 1952.5,2023.0 1952.5,2024.0 1952.5,2025.0 1953.0,2025.5 1954.0,2025.5 1955.0,2025.5 1955.5,2026.0 1956.0,2026.5 1956.5,2027.0 1956.0,2027.5" /><polygon fill="gray" points="1971.0,2027.5 1970.0,2027.5 1969.0,2027.5 1968.0,2027.5 1967.0,2027.5 1966.0,2027.5 1965.5,2027.0 1965.5,2026.0 1965.5,2025.0 1965.5,2024.0 1966.0,2023.5 1967.0,2023.5 1968.0,2023.5 1968.5,2023.0 1969.0,2022.5 1969.5,2022.0 1969.0,2021.5 1968.0,2021.5 1967.0,2021.5 1966.5,2021.0 1967.0,2020.5 1968.0,2020.5 1969.0,2020.5 1970.0,2020.5 1970.5,2021.0 1971.0,2021.5 1971.5,2022.0 1971.5,2023.0 1971.5,2024.0 1971.5,2025.0 1971.5,2026.0 1971.5,2027.0 1971.0,2027.5" /><polygon fill="gray" points="1975.0,2027.5 1974.0,2027.5 1973.5,2027.0 1973.5,2026.0 1973.5,2025.0 1973.5,2024.0 1973.5,2023.0 1973.5,2022.0 1973.5,2021.0 1974.0,2020.5 1975.0,2020.5 1976.0,2020.5 1977.0,2020.5 1977.5,2021.0 1977.5,2022.0 1977.0,2022.5 1976.0,2022.5 1975.5,2023.0 1975.5,2024.0 1975.5,2025.0 1975.5,2026.0 1975.5,2027.0 1975.0,2027.5" /><polygon fill="gray" points="1995.0,2027.5 1994.0,2027.5 1993.5,2027.0 1993.5,2026.0 1993.5,2025.0 1993.5,2024.0 1993.0,2023.5 1992.5,2023.0 1992.5,2022.0 1992.0,2021.5 1991.5,2022.0 1991.0,2022.5 1990.5,2023.0 1990.5,2024.0 1990.5,2025.0 1990.5,2026.0 1990.5,2027.0 1990.0,2027.5 1989.0,2027.5 1988.5,2027.0 1988.5,2026.0 1988.5,2025.0 1988.5,2024.0 1988.5,2023.0 1988.5,2022.0 1988.5,2021.0 1989.0,2020.5 1990.0,2020.5 1991.0,2020.5 1992.0,2020.5 1993.0,2020.5 1994.0,2020.5 1994.5,2021.0 1995.0,2021.5 1995.5,2022.0 1995.5,2023.0 1995.5,2024.0 1995.5,2025.0 1995.5,2026.0 1995.5,2027.0 1995.0,2027.5" /><polygon fill="gray" points="2002.0,2027.5 2001.0,2027.5 2000.0,2027.5 1999.0,2027.5 1998.0,2027.5 1997.5,2027.0 1997.5,2026.0 1997.0,2025.5 1996.5,2025.0 1996.5,2024.0 1996.5,2023.0 1997.0,2022.5 1997.5,2022.0 1997.5,2021.0 1998.0,2020.5 1999.0,2020.5 2000.0,2020.5 2001.0,2020.5 2002.0,2020.5 2002.5,2021.0 2002.5,2022.0 2003.0,2022.5 2003.5,2023.0 2003.5,2024.0 2003.0,2024.5 2002.0,2024.5 2001.0,2024.5 2000.0,2024.5 1999.0,2024.5 1998.5,2025.0 1999.0,2025.5 2000.0,2025.5 2000.5,2026.0 2001.0,2026.5 2001.5,2026.0 2002.0,2025.5 2002.5,2026.0 2002.5,2027.0 2002.0,2027.5" /><polygon fill="gray" points="1852.5,2023.0 1852.5,2022.0 1852.0,2021.5 1851.5,2022.0 1851.0,2022.5 1850.5,2023.0 1851.0,2023.5 1852.0,2023.5 1852.5,2023.0" /><polygon fill="gray" points="1873.5,2023.0 1873.0,2022.5 1872.5,2022.0 1872.0,2021.5 1871.5,2022.0 1871.5,2023.0 1872.0,2023.5 1873.0,2023.5 1873.5,2023.0" /><polygon fill="gray" points="1881.5,2025.0 1881.5,2024.0 1881.5,2023.0 1881.0,2022.5 1880.5,2022.0 1880.0,2021.5 1879.5,2022.0 1879.0,2022.5 1878.5,2023.0 1878.5,2024.0 1878.5,2025.0 1879.0,2025.5 1880.0,2025.5 1881.0,2025.5 1881.5,2025.0" /><polygon fill="gray" points="1946.5,2025.0 1947.0,2024.5 1947.5,2024.0 1947.0,2023.5 1946.5,2023.0 1946.5,2022.0 1946.0,2021.5 1945.5,2022.0 1945.0,2022.5 1944.5,2023.0 1944.5,2024.0 1944.5,2025.0 1945.0,2025.5 1946.0,2025.5 1946.5,2025.0" /><polygon fill="gray" points="2001.5,2023.0 2001.0,2022.5 2000.5,2022.0 2000.0,2021.5 1999.5,2022.0 1999.5,2023.0 2000.0,2023.5 2001.0,2023.5 2001.5,2023.0" /><polygon fill="gray" points="1859.5,2025.0 1859.0,2024.5 1858.0,2024.5 1857.5,2025.0 1858.0,2025.5 1859.0,2025.5 1859.5,2025.0" /><polygon fill="gray" points="1937.5,2026.0 1938.0,2025.5 1938.5,2025.0 1938.0,2024.5 1937.0,2024.5 1936.5,2025.0 1936.5,2026.0 1937.0,2026.5 1937.5,2026.0" /><polygon fill="gray" points="1969.5,2025.0 1969.0,2024.5 1968.0,2024.5 1967.5,2025.0 1968.0,2025.5 1969.0,2025.5 1969.5,2025.0" /><polygon fill="gray" points="1986.0,2027.5 1985.0,2027.5 1984.5,2027.0 1984.5,2026.0 1985.0,2025.5 1986.0,2025.5 1986.5,2026.0 1986.5,2027.0 1986.0,2027.5" /></svg>