<?xml version="1.0" standalone="no"?>
<!DOCTYPE svg PUBLIC "-//W3C//DTD SVG 20010904//EN"
 "http://www.w3.org/TR/2001/REC-SVG-20010904/DTD/svg10.dtd">
<svg version="1.0" xmlns="http://www.w3.org/2000/svg"
 width="4800.000000pt" height="4795.000000pt" viewBox="0 0 4800.000000 4795.000000"
 preserveAspectRatio="xMidYMid meet">
<metadata>
Created by potrace 1.16, written by Peter Selinger 2001-2019
</metadata>
<g transform="translate(0.000000,4795.000000) scale(0.100000,-0.100000)"
fill="#000000" stroke="none">
<path d="M4070 18480 l0 -310 310 0 310 0 0 310 0 310 -310 0 -310 0 0 -310z
m600 5 l0 -295 -295 0 -295 0 0 295 0 295 295 0 295 0 0 -295z"/>
<path d="M44100 620 c0 -39 -1 -39 -30 -33 -47 9 -80 -27 -80 -87 0 -64 18
-79 98 -79 l62 1 0 119 0 119 -25 0 c-22 0 -25 -4 -25 -40z"/>
<path d="M44770 540 l0 -120 25 0 c23 0 24 4 27 63 3 56 5 62 26 65 21 3 22 0
22 -62 0 -64 1 -66 25 -66 24 0 25 2 25 75 0 71 -2 76 -25 87 -19 8 -31 8 -50
0 -25 -11 -25 -11 -25 33 0 41 -2 45 -25 45 l-25 0 0 -120z"/>
<path d="M45890 540 l0 -120 25 0 c23 0 25 3 25 49 0 62 7 81 30 81 23 0 30
-19 30 -81 0 -46 2 -49 25 -49 24 0 25 3 25 54 0 96 -25 130 -81 109 l-29 -11
0 44 c0 40 -2 44 -25 44 l-25 0 0 -120z"/>
<path d="M43034 616 c-30 -30 -34 -40 -34 -84 0 -62 28 -99 80 -110 59 -12 90
-4 90 23 0 21 -3 23 -39 18 -72 -10 -107 62 -60 122 18 22 28 26 60 23 35 -3
39 -1 39 19 0 21 -5 23 -51 23 -45 0 -55 -4 -85 -34z"/>
<path d="M43355 565 c-27 -26 -34 -80 -15 -115 20 -38 121 -44 128 -8 3 15 -2
17 -27 12 -30 -6 -61 8 -61 27 0 5 23 9 50 9 49 0 50 1 50 30 0 65 -78 93
-125 45z"/>
<path d="M43533 583 c-7 -2 -13 -13 -13 -24 0 -16 4 -17 25 -9 28 11 58 3 52
-13 -2 -7 -19 -15 -37 -18 -33 -7 -60 -31 -60 -54 0 -21 25 -46 45 -46 11 1
39 1 63 1 l42 0 0 70 c0 60 -3 71 -22 84 -22 15 -69 20 -95 9z"/>
<path d="M43835 565 c-32 -32 -34 -96 -4 -126 26 -26 112 -24 117 3 3 15 -2
17 -27 12 -30 -6 -61 8 -61 27 0 5 23 9 50 9 49 0 50 1 50 30 0 65 -78 93
-125 45z"/>
<path d="M45126 582 c-3 -5 -19 -7 -36 -4 l-30 4 0 -81 c0 -79 1 -81 25 -81
23 0 24 4 27 63 3 54 5 62 23 62 18 0 20 -8 23 -62 3 -59 4 -63 27 -63 23 0
24 4 27 63 3 54 5 62 23 62 18 0 20 -8 23 -62 3 -59 4 -63 27 -63 24 0 25 2
25 75 0 63 -3 76 -19 85 -28 14 -56 12 -71 -5 -11 -13 -14 -13 -27 0 -16 16
-59 20 -67 7z"/>
<path d="M45373 583 c-7 -2 -13 -13 -13 -24 0 -16 4 -17 25 -9 28 11 58 3 52
-14 -2 -6 -17 -12 -34 -14 -44 -4 -69 -35 -57 -70 9 -25 13 -27 77 -29 l67 -2
0 65 c0 51 -4 68 -20 84 -19 19 -67 26 -97 13z"/>
<path d="M45606 583 c-4 -4 -22 -6 -41 -5 l-35 3 0 -116 0 -115 25 0 c22 0 25
4 25 38 l0 38 39 -4 c32 -3 42 1 60 23 27 35 27 85 0 119 -19 25 -57 35 -73
19z"/>
<path d="M46103 583 c-7 -2 -13 -13 -13 -24 0 -16 4 -17 25 -9 28 11 58 3 52
-13 -2 -7 -19 -15 -37 -18 -33 -7 -60 -31 -60 -54 0 -21 25 -46 45 -46 11 1
39 1 63 1 l42 0 0 70 c0 60 -3 71 -22 84 -22 15 -69 20 -95 9z"/>
<path d="M46696 583 c-4 -4 -22 -6 -41 -5 l-35 3 0 -81 c0 -78 1 -80 25 -80
23 0 24 4 27 63 3 54 6 62 24 65 25 4 34 -19 34 -85 0 -36 3 -43 20 -43 18 0
20 7 20 73 0 43 -5 78 -12 85 -13 13 -51 16 -62 5z"/>
<path d="M46835 565 c-30 -29 -34 -88 -9 -123 14 -20 23 -23 67 -20 40 2 53 7
55 21 3 14 -1 17 -21 11 -33 -8 -67 3 -67 22 0 10 13 14 50 14 48 0 50 1 50
28 0 36 -37 72 -74 72 -15 0 -37 -10 -51 -25z"/>
<path d="M44274 564 c3 -8 14 -44 23 -80 16 -59 19 -64 44 -64 24 0 28 5 39
51 14 56 24 52 35 -13 6 -33 10 -38 34 -38 26 0 29 5 46 68 10 37 20 73 23 80
2 7 -5 12 -21 12 -23 0 -26 -5 -32 -51 -8 -56 -19 -51 -30 13 -6 33 -10 38
-34 38 -26 0 -29 -5 -41 -57 -14 -63 -13 -64 -34 30 -5 21 -12 27 -32 27 -20
0 -25 -4 -20 -16z"/>
</g>
</svg>
